<svg xmlns="http://www.w3.org/2000/svg" xmlns:xlink="http://www.w3.org/1999/xlink" contentStyleType="text/css" height="690px" preserveAspectRatio="none" style="width:152px;height:690px;background:#FFFFFF;" version="1.1" viewBox="0 0 152 690" width="152px" zoomAndPan="magnify"><defs/><g><!--class user--><g id="elem_user"><rect codeLine="1" fill="#F1F1F1" height="80.5938" id="user" rx="2.5" ry="2.5" style="stroke:#181818;stroke-width:0.5;" width="65.7031" x="43.5" y="7"/><ellipse cx="59.9251" cy="23" fill="#ADD1B2" rx="11" ry="11" style="stroke:#181818;stroke-width:1.0;"/><path d="M64.0345,29 L56.3158,29 L56.3158,16.6094 L64.0345,16.6094 L64.0345,18.7656 L58.7689,18.7656 L58.7689,21.4375 L63.5345,21.4375 L63.5345,23.5938 L58.7689,23.5938 L58.7689,26.8438 L64.0345,26.8438 L64.0345,29 Z " fill="#000000"/><text fill="#000000" font-family="sans-serif" font-size="14" lengthAdjust="spacing" textLength="30.5361" x="74.2418" y="27.8467">user</text><line style="stroke:#181818;stroke-width:0.5;" x1="44.5" x2="108.2031" y1="39" y2="39"/><ellipse cx="54.5" cy="52.6484" fill="none" rx="3" ry="3" style="stroke:#038048;stroke-width:1.0;"/><text fill="#000000" font-family="sans-serif" font-size="14" lengthAdjust="spacing" textLength="12.7764" x="63.5" y="55.9951">id</text><ellipse cx="54.5" cy="68.9453" fill="none" rx="3" ry="3" style="stroke:#038048;stroke-width:1.0;"/><text fill="#000000" font-family="sans-serif" font-size="14" lengthAdjust="spacing" textLength="39.7031" x="63.5" y="72.292">name</text><line style="stroke:#181818;stroke-width:0.5;" x1="44.5" x2="108.2031" y1="79.5938" y2="79.5938"/></g><!--class house--><g id="elem_house"><rect codeLine="5" fill="#F1F1F1" height="96.8906" id="house" rx="2.5" ry="2.5" style="stroke:#181818;stroke-width:0.5;" width="81.3096" x="36" y="148"/><ellipse cx="54.1909" cy="164" fill="#ADD1B2" rx="11" ry="11" style="stroke:#181818;stroke-width:1.0;"/><path d="M58.3002,170 L50.5815,170 L50.5815,157.6094 L58.3002,157.6094 L58.3002,159.7656 L53.0346,159.7656 L53.0346,162.4375 L57.8002,162.4375 L57.8002,164.5938 L53.0346,164.5938 L53.0346,167.8438 L58.3002,167.8438 L58.3002,170 Z " fill="#000000"/><text fill="#000000" font-family="sans-serif" font-size="14" lengthAdjust="spacing" textLength="42.2188" x="68.9" y="168.8467">house</text><line style="stroke:#181818;stroke-width:0.5;" x1="37" x2="116.3096" y1="180" y2="180"/><ellipse cx="47" cy="193.6484" fill="none" rx="3" ry="3" style="stroke:#038048;stroke-width:1.0;"/><text fill="#000000" font-family="sans-serif" font-size="14" lengthAdjust="spacing" textLength="12.7764" x="56" y="196.9951">id</text><ellipse cx="47" cy="209.9453" fill="none" rx="3" ry="3" style="stroke:#038048;stroke-width:1.0;"/><text fill="#000000" font-family="sans-serif" font-size="14" lengthAdjust="spacing" textLength="50.3125" x="56" y="213.292">user_id</text><ellipse cx="47" cy="226.2422" fill="none" rx="3" ry="3" style="stroke:#038048;stroke-width:1.0;"/><text fill="#000000" font-family="sans-serif" font-size="14" lengthAdjust="spacing" textLength="55.3096" x="56" y="229.5889">address</text><line style="stroke:#181818;stroke-width:0.5;" x1="37" x2="116.3096" y1="236.8906" y2="236.8906"/></g><!--class device--><g id="elem_device"><rect codeLine="10" fill="#F1F1F1" height="80.5938" id="device" rx="2.5" ry="2.5" style="stroke:#181818;stroke-width:0.5;" width="125.6611" x="13.5" y="305"/><ellipse cx="49.9541" cy="321" fill="#ADD1B2" rx="11" ry="11" style="stroke:#181818;stroke-width:1.0;"/><path d="M54.0635,327 L46.3447,327 L46.3447,314.6094 L54.0635,314.6094 L54.0635,316.7656 L48.7979,316.7656 L48.7979,319.4375 L53.5635,319.4375 L53.5635,321.5938 L48.7979,321.5938 L48.7979,324.8438 L54.0635,324.8438 L54.0635,327 Z " fill="#000000"/><text fill="#000000" font-family="sans-serif" font-size="14" lengthAdjust="spacing" textLength="45.9854" x="68.7217" y="325.8467">device</text><line style="stroke:#181818;stroke-width:0.5;" x1="14.5" x2="138.1611" y1="337" y2="337"/><ellipse cx="24.5" cy="350.6484" fill="none" rx="3" ry="3" style="stroke:#038048;stroke-width:1.0;"/><text fill="#000000" font-family="sans-serif" font-size="14" lengthAdjust="spacing" textLength="99.6611" x="33.5" y="353.9951">serial_number</text><ellipse cx="24.5" cy="366.9453" fill="none" rx="3" ry="3" style="stroke:#038048;stroke-width:1.0;"/><text fill="#000000" font-family="sans-serif" font-size="14" lengthAdjust="spacing" textLength="43.0186" x="33.5" y="370.292">status</text><line style="stroke:#181818;stroke-width:0.5;" x1="14.5" x2="138.1611" y1="377.5938" y2="377.5938"/></g><!--class sensor--><g id="elem_sensor"><rect codeLine="14" fill="#F1F1F1" height="80.5938" id="sensor" rx="2.5" ry="2.5" style="stroke:#181818;stroke-width:0.5;" width="125.6611" x="13.5" y="446"/><ellipse cx="49.7695" cy="462" fill="#ADD1B2" rx="11" ry="11" style="stroke:#181818;stroke-width:1.0;"/><path d="M53.8789,468 L46.1602,468 L46.1602,455.6094 L53.8789,455.6094 L53.8789,457.7656 L48.6133,457.7656 L48.6133,460.4375 L53.3789,460.4375 L53.3789,462.5938 L48.6133,462.5938 L48.6133,465.8438 L53.8789,465.8438 L53.8789,468 Z " fill="#000000"/><text fill="#000000" font-family="sans-serif" font-size="14" lengthAdjust="spacing" textLength="46.3955" x="68.4961" y="466.8467">sensor</text><line style="stroke:#181818;stroke-width:0.5;" x1="14.5" x2="138.1611" y1="478" y2="478"/><ellipse cx="24.5" cy="491.6484" fill="none" rx="3" ry="3" style="stroke:#038048;stroke-width:1.0;"/><text fill="#000000" font-family="sans-serif" font-size="14" lengthAdjust="spacing" textLength="99.6611" x="33.5" y="494.9951">serial_number</text><ellipse cx="24.5" cy="507.9453" fill="none" rx="3" ry="3" style="stroke:#038048;stroke-width:1.0;"/><text fill="#000000" font-family="sans-serif" font-size="14" lengthAdjust="spacing" textLength="65.7617" x="33.5" y="511.292">device_id</text><line style="stroke:#181818;stroke-width:0.5;" x1="14.5" x2="138.1611" y1="518.5938" y2="518.5938"/></g><!--class telemetry_data--><g id="elem_telemetry_data"><rect codeLine="18" fill="#F1F1F1" height="96.8906" id="telemetry_data" rx="2.5" ry="2.5" style="stroke:#181818;stroke-width:0.5;" width="138.9209" x="7" y="587"/><ellipse cx="22" cy="603" fill="#ADD1B2" rx="11" ry="11" style="stroke:#181818;stroke-width:1.0;"/><path d="M26.1094,609 L18.3906,609 L18.3906,596.6094 L26.1094,596.6094 L26.1094,598.7656 L20.8438,598.7656 L20.8438,601.4375 L25.6094,601.4375 L25.6094,603.5938 L20.8438,603.5938 L20.8438,606.8438 L26.1094,606.8438 L26.1094,609 Z " fill="#000000"/><text fill="#000000" font-family="sans-serif" font-size="14" lengthAdjust="spacing" textLength="106.9209" x="36" y="607.8467">telemetry_data</text><line style="stroke:#181818;stroke-width:0.5;" x1="8" x2="144.9209" y1="619" y2="619"/><ellipse cx="18" cy="632.6484" fill="none" rx="3" ry="3" style="stroke:#038048;stroke-width:1.0;"/><text fill="#000000" font-family="sans-serif" font-size="14" lengthAdjust="spacing" textLength="66.1719" x="27" y="635.9951">sensor_id</text><ellipse cx="18" cy="648.9453" fill="none" rx="3" ry="3" style="stroke:#038048;stroke-width:1.0;"/><text fill="#000000" font-family="sans-serif" font-size="14" lengthAdjust="spacing" textLength="63.1982" x="27" y="652.292">datetime</text><ellipse cx="18" cy="665.2422" fill="none" rx="3" ry="3" style="stroke:#038048;stroke-width:1.0;"/><text fill="#000000" font-family="sans-serif" font-size="14" lengthAdjust="spacing" textLength="38.2402" x="27" y="668.5889">value</text><line style="stroke:#181818;stroke-width:0.5;" x1="8" x2="144.9209" y1="675.8906" y2="675.8906"/></g><!--link user to house--><g id="link_user_house"><path codeLine="25" d="M76.5,88.28 C76.5,106.65 76.5,120.6 76.5,139.84 " fill="none" id="user-to-house" style="stroke:#181818;stroke-width:1.0;"/><line style="stroke:#181818;stroke-width:1.0;" x1="76.5" x2="82.5" y1="139.84" y2="147.84"/><line style="stroke:#181818;stroke-width:1.0;" x1="76.5" x2="70.5" y1="139.84" y2="147.84"/><line style="stroke:#181818;stroke-width:1.0;" x1="76.5" x2="76.5" y1="139.84" y2="147.84"/><line style="stroke:#181818;stroke-width:1.0;" x1="80.5" x2="72.5" y1="137.84" y2="137.84"/></g><!--link house to device--><g id="link_house_device"><path codeLine="26" d="M76.5,245.23 C76.5,264.51 76.5,278.5 76.5,296.88 " fill="none" id="house-to-device" style="stroke:#181818;stroke-width:1.0;"/><line style="stroke:#181818;stroke-width:1.0;" x1="76.5" x2="82.5" y1="296.88" y2="304.88"/><line style="stroke:#181818;stroke-width:1.0;" x1="76.5" x2="70.5" y1="296.88" y2="304.88"/><line style="stroke:#181818;stroke-width:1.0;" x1="76.5" x2="76.5" y1="296.88" y2="304.88"/><line style="stroke:#181818;stroke-width:1.0;" x1="80.5" x2="72.5" y1="294.88" y2="294.88"/></g><!--link device to sensor--><g id="link_device_sensor"><path codeLine="27" d="M76.5,386.33 C76.5,404.94 76.5,427.05 76.5,445.66 " fill="none" id="device-sensor" style="stroke:#181818;stroke-width:1.0;"/></g><!--link sensor to telemetry_data--><g id="link_sensor_telemetry_data"><path codeLine="28" d="M76.5,527.28 C76.5,545.65 76.5,559.6 76.5,578.84 " fill="none" id="sensor-to-telemetry_data" style="stroke:#181818;stroke-width:1.0;"/><line style="stroke:#181818;stroke-width:1.0;" x1="76.5" x2="82.5" y1="578.84" y2="586.84"/><line style="stroke:#181818;stroke-width:1.0;" x1="76.5" x2="70.5" y1="578.84" y2="586.84"/><line style="stroke:#181818;stroke-width:1.0;" x1="76.5" x2="76.5" y1="578.84" y2="586.84"/><line style="stroke:#181818;stroke-width:1.0;" x1="80.5" x2="72.5" y1="576.84" y2="576.84"/></g><!--SRC=[TOzB3iCW34JtFWNxYZCXjunK920Ic4XHshkNNz9cqHN6VZFs88gJJPMCf7PIwgQSxK_a07eJnlovLE8AD8cPDLkRaFENjrZTun1KqB4tiOGxqkW8I_d1Cs9UqbzykBLbfqBW4I1fCvQ5JsMpEOwg0uYhATfdPLzQ7g8ULUlNFaBHYDOROm_DuxMUXZJFwynrSVNx0000]--></g></svg>